@startuml


TCPUtils ..> BasicTCP
TCPUtils ..> BasicConvertion
TCPUtils ..> ImageConvertion


class TCPUtils {
+initTCP()
+recv_images()
+recv_compass()
+send_result()
+close_socket()
}

class BasicConvertion{
+ByteArrayToInt()
+ByteArrayToDouble()
+ByteArrayToString()
+IntToByteArray()
+DoubleToByteArray()
+StringToByteArray()
}

class BasicTCP{
+connect()
+disconnect()
+sendByteArray()
+recevByteArray()
}

class ImageConvertion{
+ImageToByteArray()
+ByteArrayToImage()
}



@enduml